<svg width="100" height="100" viewBox="0 0 100 100" fill="none" xmlns="http://www.w3.org/2000/svg">
<path d="M20.8333 87.5C17.2917 87.5 14.7736 85.9209 13.2792 82.7625C11.7847 79.6042 12.15 76.6695 14.375 73.9583L37.5 45.8333V20.8333H33.3333C32.1528 20.8333 31.1625 20.4333 30.3625 19.6333C29.5625 18.8333 29.1639 17.8445 29.1667 16.6667C29.1667 15.4861 29.5667 14.4958 30.3667 13.6958C31.1667 12.8958 32.1556 12.4972 33.3333 12.5H66.6667C67.8472 12.5 68.8375 12.9 69.6375 13.7C70.4375 14.5 70.8361 15.4889 70.8333 16.6667C70.8333 17.8472 70.4333 18.8375 69.6333 19.6375C68.8333 20.4375 67.8444 20.8361 66.6667 20.8333H62.5V45.8333L85.625 73.9583C87.8472 76.6667 88.2125 79.6014 86.7208 82.7625C85.2292 85.9236 82.7111 87.5028 79.1667 87.5H20.8333ZM20.8333 79.1667H79.1667L54.1667 48.75V20.8333H45.8333V48.75L20.8333 79.1667Z" fill="white"/>
</svg>
