<svg width="100" height="100" viewBox="0 0 100 100" fill="none" xmlns="http://www.w3.org/2000/svg">
<path d="M16.6667 27.6375C17.25 27.4042 17.95 27.1458 18.7625 26.8833C22.8017 25.6098 27.0149 24.9744 31.25 25C35.4851 24.9744 39.6983 25.6098 43.7375 26.8833C44.55 27.1458 45.25 27.4042 45.8333 27.6375V72.9708C41.107 71.5307 36.1908 70.8101 31.25 70.8333C25.1667 70.8333 20.2125 71.8667 16.6667 72.9708V27.6375ZM50 20.3542C48.7915 19.8231 47.5566 19.3544 46.3 18.95C41.4328 17.4101 36.3549 16.6397 31.25 16.6667C24.8917 16.6667 19.7708 17.7958 16.2 18.95C14.7783 19.4057 13.3855 19.947 12.0292 20.5708C11.525 20.804 11.0289 21.0541 10.5417 21.3208L10.4375 21.3792L10.4 21.4L10.3875 21.4083C10.3792 21.4167 9.35418 22.0208 10.375 21.4167C9.75302 21.7854 9.23771 22.3097 8.87974 22.938C8.52177 23.5663 8.33347 24.2769 8.33334 25V79.1667C8.33347 79.9021 8.52825 80.6244 8.89789 81.2602C9.26754 81.896 9.79888 82.4226 10.4379 82.7866C11.077 83.1505 11.801 83.3389 12.5364 83.3324C13.2718 83.326 13.9924 83.1251 14.625 82.75L14.6042 82.7625L14.6167 82.7583L14.6208 82.7542L14.775 82.6708C14.9292 82.5875 15.1833 82.4625 15.5333 82.2958C16.2417 81.9708 17.325 81.5125 18.7625 81.0458C22.8019 79.7737 27.0151 79.1397 31.25 79.1667C35.4849 79.1397 39.6981 79.7737 43.7375 81.0458C44.838 81.3972 45.9164 81.8147 46.9667 82.2958C47.2812 82.4416 47.5911 82.5973 47.8958 82.7625M47.8958 82.7625L47.8833 82.7583L47.8792 82.7542C49.1875 83.525 50.8125 83.525 52.1208 82.7542L52.275 82.6708C52.4292 82.5875 52.6833 82.4625 53.0333 82.2958C54.0836 81.8147 55.162 81.3972 56.2625 81.0458C60.3019 79.7737 64.5151 79.1397 68.75 79.1667C72.9849 79.1397 77.1981 79.7737 81.2375 81.0458C82.338 81.3972 83.4164 81.8147 84.4667 82.2958C84.7755 82.4392 85.0798 82.592 85.3792 82.7542C86.012 83.1284 86.7325 83.3285 87.4677 83.3342C88.2028 83.3399 88.9264 83.151 89.5649 82.7866C90.2035 82.4223 90.7342 81.8955 91.1034 81.2597C91.4725 80.6239 91.6669 79.9018 91.6667 79.1667V25C91.6666 24.2769 91.4783 23.5663 91.1203 22.938C90.7623 22.3097 90.247 21.7854 89.625 21.4167L89.6167 21.4125L89.6 21.4L89.5583 21.3792L89.4583 21.3208C88.9712 21.054 88.475 20.8039 87.9709 20.5708C86.6158 19.9472 85.2244 19.4059 83.8042 18.95C78.9356 17.4097 73.8563 16.6393 68.75 16.6667C62.3958 16.6667 57.2708 17.7958 53.7 18.95C52.4431 19.3534 51.2081 19.8221 50 20.3542M83.3334 27.6375V72.9708C78.607 71.5307 73.6908 70.8101 68.75 70.8333C62.6667 70.8333 57.7125 71.8667 54.1667 72.9708V27.6375C54.75 27.4042 55.45 27.1458 56.2625 26.8833C60.3017 25.6098 64.5149 24.9744 68.75 25C72.9851 24.9744 77.1983 25.6098 81.2375 26.8833C82.05 27.1458 82.75 27.4042 83.3334 27.6375ZM85.375 28.5875L85.3959 28.5958H85.3917L85.375 28.5875ZM85.3792 82.7542L85.3917 82.7625L85.3834 82.7542" fill="white"/>
</svg>
