<svg width="100" height="100" viewBox="0 0 100 100" fill="none" xmlns="http://www.w3.org/2000/svg">
<path d="M83.425 12.5H62.5917C61.4866 12.5 60.4268 12.939 59.6454 13.7204C58.864 14.5018 58.425 15.5616 58.425 16.6667C58.425 17.7717 58.864 18.8315 59.6454 19.6129C60.4268 20.3943 61.4866 20.8333 62.5917 20.8333H68.8417V45.8333H48.2167C50.9734 42.2479 52.4754 37.856 52.4917 33.3333C52.4915 28.7474 50.9781 24.2896 48.1863 20.6514C45.3945 17.0132 41.4802 14.3978 37.0505 13.2108C32.6208 12.0239 27.9232 12.3317 23.6863 14.0865C19.4494 15.8414 15.9099 18.9452 13.6167 22.9167C13.3232 23.391 13.128 23.9194 13.0426 24.4706C12.9571 25.0217 12.9832 25.5844 13.1193 26.1253C13.2554 26.6662 13.4987 27.1743 13.8347 27.6195C14.1708 28.0646 14.5928 28.4377 15.0758 28.7167C15.5587 28.9957 16.0928 29.1749 16.6463 29.2437C17.1998 29.3125 17.7615 29.2694 18.298 29.1171C18.8346 28.9648 19.3351 28.7063 19.7699 28.3569C20.2047 28.0076 20.5649 27.5745 20.8292 27.0833C21.9262 25.1832 23.504 23.6054 25.4041 22.5083C27.3041 21.4112 29.4595 20.8335 31.6535 20.8333C33.8476 20.8332 36.003 21.4105 37.9033 22.5073C39.8035 23.6041 41.3815 25.1817 42.4789 27.0817C43.5762 28.9816 44.1541 31.1369 44.1545 33.3309C44.1549 35.525 43.5779 37.6805 42.4813 39.5808C41.3847 41.4812 39.8072 43.0594 37.9074 44.157C36.0076 45.2545 33.8524 45.8327 31.6584 45.8333C30.5533 45.8333 29.4935 46.2723 28.7121 47.0537C27.9307 47.8351 27.4917 48.8949 27.4917 50C27.4917 51.1051 27.9307 52.1649 28.7121 52.9463C29.4935 53.7277 30.5533 54.1667 31.6584 54.1667C33.8524 54.1673 36.0076 54.7455 37.9074 55.843C39.8072 56.9406 41.3847 58.5188 42.4813 60.4192C43.5779 62.3195 44.1549 64.475 44.1545 66.6691C44.1541 68.8631 43.5762 71.0184 42.4789 72.9183C41.3815 74.8183 39.8035 76.3959 37.9033 77.4927C36.003 78.5895 33.8476 79.1668 31.6535 79.1667C29.4595 79.1665 27.3041 78.5888 25.4041 77.4917C23.504 76.3946 21.9262 74.8168 20.8292 72.9167C20.2592 71.9954 19.3529 71.3323 18.3023 71.0681C17.2518 70.8038 16.1396 70.959 15.2015 71.5009C14.2635 72.0428 13.5734 72.9288 13.2775 73.9709C12.9817 75.013 13.1033 76.1294 13.6167 77.0833C15.9099 81.0548 19.4494 84.1586 23.6863 85.9135C27.9232 87.6683 32.6208 87.9761 37.0505 86.7892C41.4802 85.6022 45.3945 82.9868 48.1863 79.3486C50.9781 75.7104 52.4915 71.2526 52.4917 66.6667C52.4754 62.144 50.9734 57.7521 48.2167 54.1667H68.8417V83.3333C68.8417 84.4384 69.2807 85.4982 70.0621 86.2796C70.8435 87.061 71.9033 87.5 73.0084 87.5C74.1134 87.5 75.1732 87.061 75.9546 86.2796C76.736 85.4982 77.175 84.4384 77.175 83.3333V20.8333H83.425C84.5301 20.8333 85.5899 20.3943 86.3713 19.6129C87.1527 18.8315 87.5917 17.7717 87.5917 16.6667C87.5917 15.5616 87.1527 14.5018 86.3713 13.7204C85.5899 12.939 84.5301 12.5 83.425 12.5Z" fill="white"/>
</svg>
