<svg width="100" height="100" viewBox="0 0 100 100" fill="none" xmlns="http://www.w3.org/2000/svg">
<g clip-path="url(#clip0_38_23)">
<path d="M50.6875 32.6459L56.1042 27.2292C58.7931 24.4514 60.2826 20.728 60.2512 16.8621C60.2198 12.9961 58.6701 9.29737 55.9364 6.56363C53.2026 3.82989 49.5039 2.28021 45.6379 2.24882C41.772 2.21743 38.0486 3.70686 35.2708 6.39585L29.8541 11.8125C28.0333 13.6334 25.8125 15.0084 23.3625 15.825L14.5833 18.75V19.7917L42.7083 47.9167H43.75L46.6791 39.1375C47.4916 36.6917 48.8666 34.4709 50.6875 32.6459ZM50.6875 32.6459L51.125 33.3334C56.084 41.9541 64.0405 48.4497 73.4792 51.5834M73.4792 51.5834C74.0625 50.2996 75.0587 49.2508 76.3135 48.6074C77.5683 47.964 79.0037 47.7639 80.3867 48.0395C81.7696 48.3151 83.0186 49.0503 83.9309 50.1256C84.8432 51.2008 85.365 52.553 85.4117 53.9623C85.4583 55.3717 85.0269 56.7554 84.1877 57.8886C83.3485 59.0218 82.1508 59.8379 80.7891 60.2043C79.4274 60.5707 77.9819 60.4659 76.6873 59.9068C75.3927 59.3478 74.3253 58.3674 73.6583 57.125C73.2013 56.2784 72.9469 55.3373 72.9151 54.3757C72.8833 53.4142 73.0791 52.4583 73.4792 51.5834ZM27.0833 43.75C26.5361 44.2972 25.8865 44.7312 25.1716 45.0274C24.4567 45.3235 23.6905 45.4759 22.9166 45.4759C21.3538 45.4759 19.855 44.8551 18.75 43.75C18.2028 43.2028 17.7688 42.5533 17.4726 41.8383C17.1765 41.1234 17.0241 40.3572 17.0241 39.5834C17.0241 38.0206 17.6449 36.5218 18.75 35.4167M56.1 6.40002L60.8333 1.66669M50 85.4167C50 82.6667 50.4708 79.9084 51.7291 77.4584C56.4341 68.3216 64.1962 61.1257 73.6625 57.125M50 85.4167C72.9167 85.4167 85.4167 93.75 85.4167 93.75V97.9167H14.5833V93.75C14.5833 93.75 27.0833 85.4167 50 85.4167Z" stroke="white" stroke-width="5"/>
</g>
<defs>
<clipPath id="clip0_38_23">
<rect width="100" height="100" fill="white"/>
</clipPath>
</defs>
</svg>
