<svg width="100" height="100" viewBox="0 0 100 100" fill="none" xmlns="http://www.w3.org/2000/svg">
<path d="M36.4604 44.1042C38.0813 45.4625 39.8292 46.0834 43.7563 46.0834H44.6729C46.228 46.0834 47.7193 45.4658 48.8191 44.3664C49.9188 43.267 50.537 41.7759 50.5375 40.2208C50.5375 38.6655 49.9196 37.1738 48.8198 36.074C47.72 34.9741 46.2283 34.3563 44.6729 34.3563M36.4583 24.5813C38.0833 23.2271 39.8333 22.6104 43.7604 22.6229L44.6729 22.6271C46.228 22.6277 47.7191 23.2458 48.8185 24.3455C49.9178 25.4453 50.5354 26.9367 50.5354 28.4917C50.5354 30.0471 49.9176 31.5387 48.8177 32.6386C47.7179 33.7384 46.2262 34.3563 44.6708 34.3563M40.1646 34.3563H59.1417M54.7417 22.6208H63.5417M59.1417 46.0854V22.6208" stroke="white" stroke-width="2" stroke-linecap="round" stroke-linejoin="round"/>
<path d="M27.4333 38.6937H15.9167C13.525 38.6937 11.5875 40.6312 11.5875 43.0229V84.2125C11.5875 86.6041 13.525 88.5416 15.9167 88.5416H84.0833C86.475 88.5416 88.4125 86.6041 88.4125 84.2125V43.0229C88.4125 40.6312 86.475 38.6937 84.0833 38.6937H73.075" stroke="white" stroke-width="2" stroke-linecap="round" stroke-linejoin="round"/>
<path d="M70.2562 74.5062H30.2521C29.7677 74.5062 29.375 74.8989 29.375 75.3833V80.5604C29.375 81.0448 29.7677 81.4375 30.2521 81.4375H70.2562C70.7406 81.4375 71.1333 81.0448 71.1333 80.5604V75.3833C71.1333 74.8989 70.7406 74.5062 70.2562 74.5062Z" stroke="white" stroke-width="2" stroke-linecap="round" stroke-linejoin="round"/>
<path d="M28.4958 62.0416H23.2375C22.7531 62.0416 22.3604 62.4343 22.3604 62.9187V68.177C22.3604 68.6614 22.7531 69.0541 23.2375 69.0541H28.4958C28.9802 69.0541 29.3729 68.6614 29.3729 68.177V62.9187C29.3729 62.4343 28.9802 62.0416 28.4958 62.0416Z" stroke="white" stroke-width="2" stroke-linecap="round" stroke-linejoin="round"/>
<path d="M40.6896 62.0416H35.4313C34.9469 62.0416 34.5542 62.4343 34.5542 62.9187V68.177C34.5542 68.6614 34.9469 69.0541 35.4313 69.0541H40.6896C41.174 69.0541 41.5667 68.6614 41.5667 68.177V62.9187C41.5667 62.4343 41.174 62.0416 40.6896 62.0416Z" stroke="white" stroke-width="2" stroke-linecap="round" stroke-linejoin="round"/>
<path d="M53.7604 63.2396V68.1771C53.7607 68.2921 53.7383 68.4062 53.6944 68.5126C53.6506 68.619 53.5862 68.7157 53.5049 68.7971C53.4236 68.8786 53.327 68.9432 53.2207 68.9873C53.1144 69.0314 53.0005 69.0541 52.8854 69.0541H47.625C47.3929 69.0541 47.1704 68.962 47.0063 68.7979C46.8422 68.6338 46.75 68.4112 46.75 68.1792V63.2416" stroke="white" stroke-width="2" stroke-linecap="round" stroke-linejoin="round"/>
<path d="M65.075 62.0416H59.8167C59.3323 62.0416 58.9396 62.4343 58.9396 62.9187V68.177C58.9396 68.6614 59.3323 69.0541 59.8167 69.0541H65.075C65.5594 69.0541 65.9521 68.6614 65.9521 68.177V62.9187C65.9521 62.4343 65.5594 62.0416 65.075 62.0416Z" stroke="white" stroke-width="2" stroke-linecap="round" stroke-linejoin="round"/>
<path d="M77.2687 62.0416H72.0104C71.526 62.0416 71.1333 62.4343 71.1333 62.9187V68.177C71.1333 68.6614 71.526 69.0541 72.0104 69.0541H77.2687C77.7531 69.0541 78.1458 68.6614 78.1458 68.177V62.9187C78.1458 62.4343 77.7531 62.0416 77.2687 62.0416Z" stroke="white" stroke-width="2" stroke-linecap="round" stroke-linejoin="round"/>
<path d="M28.4958 49.577H23.2375C22.7531 49.577 22.3604 49.9697 22.3604 50.4541V55.7124C22.3604 56.1968 22.7531 56.5895 23.2375 56.5895H28.4958C28.9802 56.5895 29.3729 56.1968 29.3729 55.7124V50.4541C29.3729 49.9697 28.9802 49.577 28.4958 49.577Z" stroke="white" stroke-width="2" stroke-linecap="round" stroke-linejoin="round"/>
<path d="M38.075 56.5895H35.4292C35.3141 56.5895 35.2001 56.5668 35.0938 56.5227C34.9875 56.4786 34.891 56.414 34.8097 56.3325C34.7284 56.251 34.664 56.1543 34.6202 56.0479C34.5763 55.9415 34.5539 55.8275 34.5542 55.7124V53.8895M65.9542 53.8895V55.7124C65.9542 55.8275 65.9315 55.9415 65.8874 56.0478C65.8433 56.1541 65.7786 56.2506 65.6972 56.3319C65.6157 56.4132 65.519 56.4776 65.4126 56.5214C65.3062 56.5653 65.1922 56.5877 65.0771 56.5874H62.4333" stroke="white" stroke-width="2" stroke-linecap="round" stroke-linejoin="round"/>
<path d="M77.2687 49.577H72.0104C71.526 49.577 71.1333 49.9697 71.1333 50.4541V55.7124C71.1333 56.1968 71.526 56.5895 72.0104 56.5895H77.2687C77.7531 56.5895 78.1458 56.1968 78.1458 55.7124V50.4541C78.1458 49.9697 77.7531 49.577 77.2687 49.577Z" stroke="white" stroke-width="2" stroke-linecap="round" stroke-linejoin="round"/>
<path d="M71.3583 49.7458L50.2542 65.9291L29.15 49.7437C28.616 49.3344 28.1835 48.8077 27.8858 48.2044C27.5881 47.6011 27.4333 46.9373 27.4333 46.2646V14.9666C27.4333 13.0291 29.0021 11.4604 30.9396 11.4604H69.5687C71.5062 11.4604 73.075 13.0312 73.075 14.9666V46.2687C73.075 47.6312 72.4417 48.9146 71.3583 49.7458Z" stroke="white" stroke-width="2" stroke-linecap="round" stroke-linejoin="round"/>
</svg>
