<svg width="30" height="30" viewBox="0 0 30 30" fill="none" xmlns="http://www.w3.org/2000/svg">
<path d="M20.695 16.1325L20.1262 16.6987C20.1262 16.6987 18.7725 18.0437 15.0787 14.3712C11.385 10.6987 12.7387 9.35372 12.7387 9.35372L13.0962 8.99622C13.98 8.11872 14.0637 6.70872 13.2925 5.67872L11.7175 3.57497C10.7625 2.29997 8.91872 2.13122 7.82497 3.21872L5.86247 5.16872C5.32122 5.70872 4.95872 6.40622 5.00247 7.18122C5.11497 9.16497 6.01247 13.4312 11.0175 18.4087C16.3262 23.6862 21.3075 23.8962 23.3437 23.7062C23.9887 23.6462 24.5487 23.3187 25 22.8687L26.775 21.1037C27.975 19.9125 27.6375 17.8687 26.1025 17.035L23.715 15.7362C22.7075 15.1887 21.4825 15.35 20.695 16.1325Z" fill="white"/>
</svg>
